Coordinates
nRows=9
nColumns=38

# SIMM Motion File Header:
name Coordinates
datacolumns 38
datarows 9
otherdata 1
range 2.38900000000000020000 2.39700000000000020000

Units are S.I. units (second, meters, Newtons, ...)
Angles are in degrees.

endheader
time	pelvis_tilt	pelvis_list	pelvis_rotation	pelvis_tx	pelvis_ty	pelvis_tz	hip_flexion_r	hip_adduction_r	hip_rotation_r	knee_angle_r	ankle_angle_r	subtalar_angle_r	mtp_angle_r	hip_flexion_l	hip_adduction_l	hip_rotation_l	knee_angle_l	ankle_angle_l	subtalar_angle_l	mtp_angle_l	lumbar_extension	lumbar_bending	lumbar_rotation	arm_flex_r	arm_add_r	arm_rot_r	elbow_flex_r	pro_sup_r	wrist_flex_r	wrist_dev_r	arm_flex_l	arm_add_l	arm_rot_l	elbow_flex_l	pro_sup_l	wrist_flex_l	wrist_dev_l
      2.38900000000000020000	     -2.91294466979179000000	     -0.84642966972113920000	      0.50586600692436057000	      1.24971757685641640000	      0.99501781362272956000	     -0.31927167453953392000	    -24.40895496927419100000	      8.24101565204034080000	     12.07366656502190600000	    -45.42347608051650100000	    -18.71680199590753800000	     -0.00000000000007068849	      0.00000000000003643771	     20.39447157134949200000	      3.88361231024293120000	      8.25184930133618090000	      5.87474277096214430000	     -2.87028287248563350000	     -0.00000000000000682328	     -0.00000000000000430563	     -9.98413932889599740000	      0.00218676278819421440	     18.46103808455590200000	    -21.78174843395071700000	    -26.15232240198949400000	      5.15381649327224260000	    139.86224008091617000000	     94.21284950610518600000	      0.00000000000000875645	      0.00000000000000468335	    -54.00131611596940900000	    -12.04778951087578100000	    -14.89327262652999600000	    131.04921710373122000000	     93.16983992314111200000	     -0.00000000000000724651	      0.00000000000004305567
      2.39000000000000010000	     -2.87364387972022950000	     -0.84229753197052015000	      0.50783785898833522000	      1.24964006007177210000	      0.99458455811596980000	     -0.31924793148527703000	    -24.21392638002172900000	      8.20562015881114350000	     11.79428331166727500000	    -46.14339960232329900000	    -18.60850556958178700000	     -0.00000000000007102741	      0.00000000000003672188	     20.31434946146790600000	      3.90206734314726500000	      8.27034687109322060000	      5.88253220419712180000	     -2.89529147851738600000	     -0.00000000000000688890	     -0.00000000000000430431	    -10.04963329172881000000	     -0.00434167813004250010	     18.37931222874069400000	    -21.85010332582712400000	    -26.09286336370994200000	      5.11577125911789390000	    139.65192400529128000000	     94.23017769020981400000	      0.00000000000000881111	      0.00000000000000471180	    -53.77465650501811500000	    -12.08724502764114900000	    -14.84212059825349600000	    131.01215293976315000000	     93.19090293346539500000	     -0.00000000000000727473	      0.00000000000004325087
      2.39100000000000000000	     -2.83495360081778050000	     -0.83430718555299133000	      0.50829968903158163000	      1.24955940723150570000	      0.99414344512575936000	     -0.31922686155408336000	    -24.01434809187247100000	      8.16201305240334030000	     11.51162013838589200000	    -46.86736127766433700000	    -18.49885975964948100000	     -0.00000000000007136690	      0.00000000000003700710	     20.23891347676322600000	      3.92561431454094740000	      8.28817026067819820000	      5.86958275533884600000	     -2.92716713167952580000	     -0.00000000000000695861	     -0.00000000000000430340	    -10.11428144808953900000	     -0.01472757948826697300	     18.29753453225388400000	    -21.91737061567102500000	    -26.03153952816777000000	      5.07706959367705400000	    139.43850031708817000000	     94.24571700746027100000	      0.00000000000000886464	      0.00000000000000474125	    -53.54601132090368800000	    -12.12777433010578700000	    -14.79014144873231900000	    130.97360491283126000000	     93.21059714295609000000	     -0.00000000000000730300	      0.00000000000004344565
      2.39200000000000030000	     -2.79684796671673340000	     -0.82248514242167237000	      0.50722394680870198000	      1.24947562248851460000	      0.99369450985263452000	     -0.31920836676702141000	    -23.81042338687255400000	      8.11023949752727800000	     11.22623773911294100000	    -47.59503767467941100000	    -18.38772408009363000000	     -0.00000000000007171030	      0.00000000000003729126	     20.16819269539723800000	      3.95422987322608630000	      8.30511789765289700000	      5.83582564257997300000	     -2.96615660130426000000	     -0.00000000000000702976	     -0.00000000000000429966	    -10.17811271710635700000	     -0.02895949202033161100	     18.21574078184512400000	    -21.98352620614412000000	    -25.96837684648603800000	      5.03772245146410750000	    139.22201059663092000000	     94.25941342807938400000	      0.00000000000000891763	      0.00000000000000476983	    -53.31541531688066000000	    -12.16938861289973600000	    -14.73735133441234900000	    130.93359526349434000000	     93.22886680272124200000	     -0.00000000000000733138	      0.00000000000004364115
      2.39300000000000020000	     -2.75932370025112040000	     -0.80686243038661698000	      0.50457556394582626000	      1.24938869048078540000	      0.99323775024687877000	     -0.31919232868038283000	    -23.60232537503075900000	      8.05035464823937020000	     10.93869568175241200000	    -48.32612289278671400000	    -18.27495550254754500000	     -0.00000000000007205408	      0.00000000000003757388	     20.10223957377787900000	      3.98788045558939470000	      8.32097174534450980000	      5.78122411379440760000	     -3.01245434462766860000	     -0.00000000000000710292	     -0.00000000000000429166	    -10.24113410917561100000	     -0.04702315698801630400	     18.13397257073050300000	    -22.04854988103464900000	    -25.90339926550312900000	      4.99773887961674830000	    139.00249260192183000000	     94.27122631361851300000	      0.00000000000000897062	      0.00000000000000479813	    -53.08290035217312700000	    -12.21209980604569100000	    -14.68376733957828900000	    130.89214192552191000000	     93.24565545728178500000	     -0.00000000000000735963	      0.00000000000004383771
      2.39400000000000010000	     -2.72239643330351560000	     -0.78747488579887781000	      0.50032941834134925000	      1.24929857601765380000	      0.99277313232946185000	     -0.31917863587548656000	    -23.39020342476367300000	      7.98242975135454720000	     10.64953652807397500000	    -49.06032088661577000000	    -18.16041338737121800000	     -0.00000000000007239310	      0.00000000000003785567	     20.04112938752396600000	      4.02652854039524750000	      8.33551527111144000000	      5.70576657131798020000	     -3.06619092934174460000	     -0.00000000000000718145	     -0.00000000000000428255	    -10.30333526647142300000	     -0.06889874564283499100	     18.05226013731206400000	    -22.11242385527297900000	    -25.83662850211473100000	      4.95712634216169510000	    138.77998018294201000000	     94.28112782076087200000	      0.00000000000000902313	      0.00000000000000482631	    -52.84849490606722400000	    -12.25592112033552200000	    -14.62940797571857000000	    130.84925960451343000000	     93.26090550259507900000	     -0.00000000000000738759	      0.00000000000004403418
      2.39500000000000000000	     -2.68609784109791770000	     -0.76436136606475069000	      0.49446169350390118000	      1.24920522487492440000	      0.99230059563155959000	     -0.31916717116696619000	    -23.17418498491736000000	      7.90654686937962040000	     10.35929189158120400000	    -49.79734933757099900000	    -18.04395797472174900000	     -0.00000000000007272985	      0.00000000000003813569	     19.98495441682080900000	      4.07013109900308390000	      8.34852595979277190000	      5.60947063247456960000	     -3.12743369260454030000	     -0.00000000000000726036	     -0.00000000000000426930	    -10.36469196083711500000	     -0.09456405631047425100	     17.97063061692296800000	    -22.17513208985865000000	    -25.76808468054427300000	      4.91589054071606930000	    138.55450342291377000000	     94.28910203399564700000	      0.00000000000000907547	      0.00000000000000485566	    -52.61222360583645500000	    -12.30086676703926900000	    -14.57429290748542500000	    130.80496006994684000000	     93.27455832457538100000	     -0.00000000000000741534	      0.00000000000004423081
      2.39600000000000040000	     -2.65047339114363070000	     -0.73756313802586493000	      0.48695295679428047000	      1.24910856350553700000	      0.99182005811644058000	     -0.31915781680448441000	    -22.95437816567021700000	      7.82279896515777560000	     10.06847879121500500000	    -50.53693863395044200000	    -17.92545189860494800000	     -0.00000000000007306742	      0.00000000000003841409	     19.93382169317277100000	      4.11864126681498100000	      8.35977910997935500000	      5.49238224927931730000	     -3.19618830174458510000	     -0.00000000000000734009	     -0.00000000000000425457	    -10.42516894820783900000	     -0.12399476110892992000	     17.88910499444958500000	    -22.23665931467013100000	    -25.69778649404346300000	      4.87403553041845680000	    138.32608843582656000000	     94.29514438413897900000	      0.00000000000000912609	      0.00000000000000488386	    -52.37410675177052600000	    -12.34695192612798200000	    -14.51844293108574400000	    130.75925239300773000000	     93.28655425987581400000	     -0.00000000000000744267	      0.00000000000004442684
      2.39700000000000020000	     -2.61559194343555480000	     -0.70712443338367570000	      0.47779179807444133000	      1.24900849565520410000	      0.99133140029531097000	     -0.31915046028644156000	    -22.73085991366546600000	      7.73129165724991820000	      9.77759544156058700000	    -51.27883522093759400000	    -17.80475873581270800000	     -0.00000000000007340871	      0.00000000000003869151	     19.88786597369144700000	      4.17200927276546190000	      8.36905273010823870000	      5.35457049838397570000	     -3.27239952017948710000	     -0.00000000000000741594	     -0.00000000000000424575	    -10.48470918317915800000	     -0.15716326091213426000	     17.80769460798708400000	    -22.29699224354779100000	    -25.62575022993071300000	      4.83156424956714850000	    138.09475633671462000000	     94.29926230813552500000	      0.00000000000000917600	      0.00000000000000491187	    -52.13416177408762300000	    -12.39419289611783100000	    -14.46188023463636100000	    130.71214224477396000000	     93.29683267133833600000	     -0.00000000000000746968	      0.00000000000004462238
